<svg width="64" height="64" viewBox="0 0 64 64" fill="none" xmlns="http://www.w3.org/2000/svg">
<g clip-path="url(#clip0_2577_2717)">
<path d="M0.840005 30.1304C0.840005 28.6522 1.33334 27.3478 2.32001 26.2174L5.32 22.9565C6.33334 21.8551 7.54667 21.3043 8.96 21.3043C10.4 21.3043 11.6 21.8551 12.56 22.9565L24.32 35.6957V5.08696C24.32 3.57971 24.82 2.35507 25.82 1.41304C26.82 0.471013 28.0267 -1.19209e-06 29.44 -1.19209e-06H34.56C35.9733 -1.19209e-06 37.18 0.471013 38.18 1.41304C39.18 2.35507 39.68 3.57971 39.68 5.08696V35.6957L51.44 22.9565C52.4 21.8551 53.6 21.3043 55.04 21.3043C56.48 21.3043 57.68 21.8551 58.64 22.9565L61.64 26.2174C62.6533 27.3188 63.16 28.6232 63.16 30.1304C63.16 31.6667 62.6533 32.9855 61.64 34.087L35.6 62.3913C34.6667 63.4638 33.4667 64 32 64C30.56 64 29.3467 63.4638 28.36 62.3913L2.32001 34.087C1.33334 32.9565 0.840005 31.6377 0.840005 30.1304Z" fill="url(#paint0_linear_2577_2717)"/>
</g>
<defs>
<linearGradient id="paint0_linear_2577_2717" x1="85.7193" y1="5.38614" x2="-3.07087" y2="17.6164" gradientUnits="userSpaceOnUse">
<stop stop-color="#410087"/>
<stop offset="0.58438" stop-color="#E94057"/>
<stop offset="1" stop-color="#F27121"/>
</linearGradient>
<clipPath id="clip0_2577_2717">
<rect width="64" height="64" fill="white" transform="matrix(-1 0 0 -1 64 64)"/>
</clipPath>
</defs>
</svg>
