<svg width="241" height="241" viewBox="0 0 241 241" fill="none" xmlns="http://www.w3.org/2000/svg">
<g clip-path="url(#clip0_2258_1025)">
<path d="M76.5637 210.099C76.5239 209.998 76.4536 209.911 76.4283 209.804C76.4137 209.742 76.4304 209.679 76.4221 209.616C76.405 209.534 76.3595 209.466 76.3531 209.382C76.3399 209.241 76.3836 209.111 76.3986 208.974C76.4015 208.957 76.4006 208.944 76.4039 208.93C76.4642 208.442 76.6608 208.005 76.9913 207.667L91.2275 184.591C91.8648 183.558 93.2148 183.238 94.248 183.875C95.2811 184.512 95.6011 185.862 94.9638 186.895L82.884 206.476C116.716 202.158 141.524 183.146 151.261 153.738C151.642 152.585 152.884 151.962 154.035 152.343C155.186 152.725 155.809 153.967 155.428 155.118C146.271 182.786 124.61 201.768 94.883 208.812C91.6681 209.574 88.3486 210.18 84.9514 210.658L103.274 221.96C104.307 222.597 104.627 223.947 103.989 224.981C103.672 225.496 103.174 225.835 102.628 225.964C102.081 226.094 101.484 226.014 100.969 225.696L77.4148 211.167C77.0686 210.954 76.8281 210.634 76.6467 210.278C76.6128 210.22 76.5917 210.16 76.5637 210.099Z" fill="#E94057"/>
<path d="M173.944 78.5676C174.705 102.115 166.049 125.25 151.886 137.513C148.526 140.405 144.223 142.449 139.374 143.599C131.76 145.403 122.8 144.999 114.03 142.196C104.562 139.174 96.4517 133.768 91.1896 126.976C85.7419 119.944 83.9604 112.256 86.1755 105.324C90.6452 91.3301 110.42 85.096 130.248 91.4296C130.262 91.4329 130.272 91.4464 130.284 91.4502C138.768 94.1663 146.319 98.9082 151.547 104.803C152.351 105.709 152.269 107.098 151.361 107.902C151.082 108.151 150.753 108.315 150.413 108.395C149.653 108.575 148.817 108.342 148.262 107.716C143.54 102.394 136.667 98.0979 128.908 95.6186C128.898 95.6143 128.891 95.6067 128.881 95.6023C111.364 90.0208 94.0919 94.9736 90.3541 106.657C88.5941 112.169 90.1226 118.428 94.6598 124.284C99.3821 130.377 106.735 135.254 115.364 138.01C128.299 142.144 141.509 140.642 149.015 134.187C162.212 122.759 170.275 100.983 169.553 78.7059C168.756 53.9895 157.85 32.4381 138.844 18.0203C137.878 17.288 137.69 15.9114 138.421 14.9438C139.154 13.9784 140.53 13.7876 141.498 14.5215C161.578 29.7544 173.102 52.4993 173.944 78.5676Z" fill="#E94057"/>
</g>
<defs>
<clipPath id="clip0_2258_1025">
<rect width="200" height="200" fill="white" transform="translate(194.61) rotate(76.6677)"/>
</clipPath>
</defs>
</svg>
