<svg width="143" height="234" viewBox="0 0 143 234" fill="none" xmlns="http://www.w3.org/2000/svg">
<path d="M49.5364 213.769C49.4759 213.679 49.3885 213.609 49.3409 213.51C49.3132 213.453 49.3161 213.388 49.2944 213.328C49.2602 213.252 49.2011 213.195 49.1767 213.114C49.1335 212.979 49.1483 212.842 49.1335 212.706C49.1328 212.689 49.1291 212.676 49.1293 212.661C49.0834 212.172 49.1815 211.703 49.4318 211.302L58.3792 185.707C58.7797 184.561 60.0295 183.958 61.1755 184.359C62.3214 184.759 62.9238 186.009 62.5233 187.155L54.9311 208.873C87.0457 197.39 107.191 173.493 110.385 142.68C110.509 141.472 111.588 140.596 112.794 140.722C114 140.847 114.876 141.926 114.751 143.132C111.75 172.122 94.6715 195.313 67.1518 208.578C64.1756 210.012 61.0638 211.317 57.8485 212.514L78.1706 219.617C79.3165 220.017 79.919 221.267 79.5184 222.413C79.3187 222.984 78.9059 223.422 78.3996 223.666C77.8934 223.91 77.2937 223.96 76.7222 223.761L50.5971 214.63C50.2132 214.496 49.9097 214.235 49.6559 213.926C49.6105 213.877 49.5769 213.823 49.5364 213.769Z" fill="#E94057"/>
<path d="M116.394 64.3917C122.195 87.2257 118.709 111.68 107.51 126.699C104.85 130.246 101.086 133.166 96.5974 135.33C89.5493 138.727 80.7119 140.258 71.5437 139.403C61.6479 138.485 52.5657 134.948 45.9677 129.445C39.1369 123.747 35.7456 116.621 36.42 109.375C37.7797 94.7476 55.7545 84.4116 76.4795 86.3387C76.4942 86.3389 76.5068 86.3499 76.5196 86.3511C85.3886 87.1816 93.7823 90.1909 100.154 94.8253C101.134 95.5376 101.352 96.9115 100.638 97.8919C100.419 98.195 100.133 98.4255 99.8182 98.5771C99.1142 98.9165 98.2478 98.8686 97.5716 98.3757C91.8166 94.192 84.1816 91.4726 76.0704 90.7179C76.0597 90.7157 76.0519 90.7097 76.0411 90.7076C57.734 89.0187 41.9286 97.5658 40.7875 109.78C40.2523 115.54 43.0896 121.325 48.7786 126.07C54.6995 131.007 62.9286 134.191 71.9478 135.029C85.4686 136.288 98.048 131.984 103.992 124.067C114.427 110.071 117.624 87.0721 112.134 65.4699C106.047 41.5016 90.7673 22.7955 69.1076 12.7965C68.0074 12.2887 67.5275 10.9846 68.0344 9.88247C68.5422 8.78227 69.8453 8.30039 70.9484 8.80927C93.8312 19.3738 109.972 39.1126 116.394 64.3917Z" fill="#E94057"/>
</svg>
