<svg width="24" height="24" viewBox="0 0 24 24" fill="none" xmlns="http://www.w3.org/2000/svg">
<path d="M19.025 5.57301C19.049 5.5574 19.0693 5.5367 19.0844 5.51237C19.0995 5.48804 19.1091 5.46067 19.1124 5.43222C19.1158 5.40377 19.1128 5.37494 19.1037 5.34777C19.0947 5.32059 19.0797 5.29575 19.06 5.27501C18.1503 4.31774 17.0552 3.55583 15.8414 3.03574C14.6276 2.51566 13.3205 2.24831 12 2.25001C11.263 2.25001 10.545 2.33201 9.85499 2.48701C9.82268 2.49436 9.79276 2.50979 9.76802 2.53185C9.74329 2.5539 9.72456 2.58187 9.71357 2.61314C9.70258 2.6444 9.6997 2.67794 9.7052 2.71062C9.71069 2.7433 9.72438 2.77406 9.74499 2.80001C11.0786 4.52267 12.2772 6.34576 13.33 8.25301C13.3533 8.29486 13.3908 8.32697 13.4358 8.34348C13.4807 8.36 13.5301 8.35983 13.575 8.34301C15.4891 7.62545 17.3171 6.69636 19.025 5.57301ZM2.67699 10.06C2.64834 10.059 2.62028 10.0516 2.5948 10.0385C2.56932 10.0253 2.54705 10.0067 2.52958 9.984C2.5121 9.96128 2.49985 9.93498 2.4937 9.90698C2.48755 9.87898 2.48765 9.84997 2.49399 9.82201C2.82827 8.36896 3.49069 7.0117 4.4305 5.85418C5.37031 4.69666 6.56258 3.7696 7.91599 3.14401C7.95594 3.12568 8.00087 3.12123 8.04363 3.13138C8.0864 3.14153 8.12454 3.16569 8.15199 3.20001C9.52982 4.92185 10.7659 6.75251 11.848 8.67401C11.91 8.78401 11.853 8.92401 11.731 8.96101C8.79502 9.82792 5.73514 10.1987 2.67699 10.06ZM4.79999 18.216C4.78187 18.2392 4.75882 18.258 4.73252 18.2711C4.70622 18.2843 4.67731 18.2914 4.64792 18.292C4.61852 18.2925 4.58936 18.2866 4.56257 18.2745C4.53577 18.2624 4.512 18.2444 4.49299 18.222C2.98344 16.4065 2.1871 14.1032 2.25299 11.743C2.25401 11.7166 2.26028 11.6908 2.27145 11.6668C2.28261 11.6429 2.29844 11.6215 2.318 11.6038C2.33757 11.5861 2.36047 11.5725 2.38537 11.5638C2.41027 11.555 2.43666 11.5514 2.46299 11.553C2.94099 11.575 3.42299 11.587 3.90599 11.587C6.90599 11.587 9.79899 11.133 12.522 10.289C12.5671 10.2749 12.6157 10.2772 12.6593 10.2955C12.7029 10.3138 12.7385 10.3469 12.76 10.389C13.068 11.002 13.36 11.624 13.637 12.253C13.6486 12.2797 13.6543 12.3085 13.6537 12.3376C13.6531 12.3667 13.6462 12.3953 13.6335 12.4214C13.6207 12.4476 13.6024 12.4706 13.5799 12.489C13.5574 12.5074 13.5312 12.5207 13.503 12.528C10.0701 13.4485 7.021 15.4413 4.79999 18.216ZM16.272 20.602C16.2808 20.645 16.2749 20.6898 16.2553 20.7291C16.2357 20.7684 16.2036 20.8001 16.164 20.819C14.8622 21.4341 13.4398 21.7521 12 21.75C9.77043 21.7533 7.60766 20.9891 5.87499 19.586C5.83528 19.5537 5.80988 19.507 5.80427 19.4562C5.79866 19.4053 5.81328 19.3542 5.84499 19.314C7.9283 16.638 10.8479 14.7368 14.138 13.914C14.1846 13.9022 14.234 13.9079 14.2767 13.93C14.3195 13.9521 14.3526 13.9891 14.37 14.034C15.1882 16.1658 15.8245 18.3629 16.272 20.602ZM21.374 13.886C21.4236 13.8979 21.4665 13.9288 21.4936 13.9719C21.5207 14.0151 21.5298 14.0672 21.519 14.117C21.0192 16.3621 19.742 18.3583 17.913 19.753C17.8866 19.7729 17.8556 19.7858 17.8228 19.7905C17.7901 19.7952 17.7567 19.7916 17.7258 19.7799C17.6948 19.7682 17.6673 19.7489 17.6459 19.7237C17.6244 19.6986 17.6097 19.6684 17.603 19.636C17.1748 17.6631 16.6046 15.7237 15.897 13.833C15.8863 13.8049 15.8822 13.7746 15.8849 13.7447C15.8876 13.7147 15.8972 13.6857 15.9128 13.6599C15.9284 13.6342 15.9497 13.6124 15.975 13.5961C16.0004 13.5798 16.0291 13.5695 16.059 13.566C17.8358 13.362 19.6345 13.4703 21.374 13.886ZM19.973 6.74501C19.9948 6.7303 20.0194 6.7201 20.0452 6.71501C20.0711 6.70991 20.0977 6.71002 20.1235 6.71533C20.1493 6.72063 20.1737 6.73103 20.1955 6.74592C20.2172 6.7608 20.2357 6.77987 20.25 6.80201C21.2669 8.41152 21.7878 10.2846 21.748 12.188C21.7471 12.2175 21.7397 12.2464 21.7263 12.2726C21.7129 12.2989 21.6939 12.3218 21.6705 12.3398C21.6472 12.3578 21.6201 12.3704 21.5913 12.3766C21.5625 12.3829 21.5327 12.3827 21.504 12.376C19.4963 11.9236 17.4225 11.844 15.386 12.141C15.3419 12.1475 15.297 12.1393 15.2581 12.1176C15.2192 12.0959 15.1886 12.0619 15.171 12.021C14.8708 11.3194 14.5513 10.6261 14.213 9.94201C14.2007 9.91685 14.1938 9.88942 14.1927 9.86145C14.1916 9.83348 14.1964 9.80559 14.2066 9.77955C14.2169 9.75351 14.2324 9.72988 14.2523 9.71016C14.2721 9.69044 14.2959 9.67507 14.322 9.66501C16.322 8.89601 18.216 7.91401 19.973 6.74501Z" fill="current"/>
</svg>
